<?xml version="1.0" encoding="UTF-8" standalone="no"?><svg xmlns="http://www.w3.org/2000/svg" xmlns:xlink="http://www.w3.org/1999/xlink" contentScriptType="application/ecmascript" contentStyleType="text/css" height="290px" preserveAspectRatio="none" style="width:691px;height:290px;" version="1.1" viewBox="0 0 691 290" width="691px" zoomAndPan="magnify"><defs/><g><!--MD5=[75bc204f2da237cff6e09d4e84ae3267]
entity _0_Welcome_stories--><rect fill="#F8F8F8" height="34.4844" rx="3" ry="3" style="stroke: #000000; stroke-width: 0.5;" width="146" x="391.5" y="28"/><text fill="#000000" font-family="Tahoma, sans-serif" font-size="12" font-weight="bold" lengthAdjust="spacingAndGlyphs" textLength="126" x="401.5" y="50.0059">0-Welcome.stories</text><!--MD5=[97f28e9a9d5a336ac31419cbb9e59159]
entity _1_Button_stories--><rect fill="#F8F8F8" height="34.4844" rx="3" ry="3" style="stroke: #000000; stroke-width: 0.5;" width="129" x="551" y="28"/><text fill="#000000" font-family="Tahoma, sans-serif" font-size="12" font-weight="bold" lengthAdjust="spacingAndGlyphs" textLength="109" x="561" y="50.0059">1-Button.stories</text><ellipse cx="220.3492" cy="45.242" fill="#F8F8F8" rx="17.8492" ry="13.242" style="stroke: #383838; stroke-width: 0.5;"/><text fill="#000000" font-family="Tahoma, sans-serif" font-size="12" lengthAdjust="spacingAndGlyphs" textLength="21" x="209.8492" y="48.9842">App</text><!--MD5=[298c55f5f4ce90154a5a061908b1c90f]
entity _BookContext--><rect fill="#F8F8F8" height="34.4844" rx="3" ry="3" style="stroke: #000000; stroke-width: 0.5;" width="94" x="204.5" y="193"/><text fill="#000000" font-family="Tahoma, sans-serif" font-size="12" lengthAdjust="spacingAndGlyphs" textLength="74" x="214.5" y="215.0059">BookContext</text><ellipse cx="324.4975" cy="154.242" fill="#F8F8F8" rx="52.4975" ry="13.242" style="stroke: #383838; stroke-width: 0.5;"/><text fill="#000000" font-family="Tahoma, sans-serif" font-size="12" lengthAdjust="spacingAndGlyphs" textLength="70" x="289.4975" y="157.9842">BookDetails</text><ellipse cx="186.7193" cy="154.242" fill="#F8F8F8" rx="44.7193" ry="13.242" style="stroke: #383838; stroke-width: 0.5;"/><text fill="#000000" font-family="Tahoma, sans-serif" font-size="12" lengthAdjust="spacingAndGlyphs" textLength="59" x="157.2193" y="157.9842">BookForm</text><ellipse cx="251.3553" cy="101.742" fill="#F8F8F8" rx="38.3553" ry="13.242" style="stroke: #383838; stroke-width: 0.5;"/><text fill="#000000" font-family="Tahoma, sans-serif" font-size="12" lengthAdjust="spacingAndGlyphs" textLength="50" x="226.3553" y="105.4842">BookList</text><ellipse cx="251.6295" cy="266.4259" fill="#F8F8F8" rx="55.1295" ry="13.4259" style="stroke: #383838; stroke-width: 0.5;"/><text fill="#000000" font-family="Tahoma, sans-serif" font-size="12" lengthAdjust="spacingAndGlyphs" textLength="75" x="214.1295" y="270.1681">bookReducer</text><ellipse cx="33.7487" cy="45.242" fill="#F8F8F8" rx="27.7487" ry="13.242" style="stroke: #383838; stroke-width: 0.5;"/><text fill="#000000" font-family="Tahoma, sans-serif" font-size="12" font-weight="bold" lengthAdjust="spacingAndGlyphs" textLength="35" x="16.2487" y="48.9842">index</text><ellipse cx="365.5772" cy="101.742" fill="#F8F8F8" rx="30.5772" ry="13.242" style="stroke: #383838; stroke-width: 0.5;"/><text fill="#000000" font-family="Tahoma, sans-serif" font-size="12" lengthAdjust="spacingAndGlyphs" textLength="39" x="346.0772" y="105.4842">Navbar</text><ellipse cx="131.3275" cy="44.8655" fill="#F8F8F8" rx="57.3275" ry="13.8655" style="stroke: #383838; stroke-width: 0.5;"/><text fill="#000000" font-family="Tahoma, sans-serif" font-size="12" lengthAdjust="spacingAndGlyphs" textLength="81" x="90.8275" y="48.6077">serviceWorker</text><ellipse cx="464.271" cy="101.3542" fill="#F8F8F8" rx="54.771" ry="13.3542" style="stroke: #383838; stroke-width: 0.5;"/><text fill="#000000" font-family="Tahoma, sans-serif" font-size="12" font-weight="bold" lengthAdjust="spacingAndGlyphs" textLength="74" x="427.271" y="105.0964">setupTests</text><!--MD5=[089d86f13633a32108207e6fc598c2f7]
link App to _BookContext--><path d="M208.205,54.799 C188.405,69.821 150.192,102.547 135.5,141 C131.376,151.795 128.864,157.54 135.5,167 C150.026,187.7082 175.837,198.2484 199.429,203.5951 " fill="none" id="App-&gt;_BookContext" style="stroke: #000000; stroke-width: 0.5;"/><polygon fill="#000000" points="204.425,204.6589,196.4555,198.8721,199.5347,203.6175,194.7893,206.6966,204.425,204.6589" style="stroke: #000000; stroke-width: 0.5;"/><!--MD5=[4219a12304eeb00ab0067c7c7133cb30]
link App to BookForm--><path d="M216.504,57.744 C213.663,66.152 209.784,77.753 206.5,88 C201.283,104.279 195.57,122.935 191.591,136.072 " fill="none" id="App-&gt;BookForm" style="stroke: #000000; stroke-width: 0.5;"/><polygon fill="#000000" points="190.103,140.994,196.5368,133.537,191.5502,136.208,188.8792,131.2215,190.103,140.994" style="stroke: #000000; stroke-width: 0.5;"/><!--MD5=[4675f1353419c68f74030ee0ca625a7c]
link App to BookList--><path d="M226.923,57.292 C231.293,64.974 237.148,75.268 242.047,83.881 " fill="none" id="App-&gt;BookList" style="stroke: #000000; stroke-width: 0.5;"/><polygon fill="#000000" points="244.655,88.466,243.6829,78.6652,242.1832,84.1197,236.7288,82.6201,244.655,88.466" style="stroke: #000000; stroke-width: 0.5;"/><!--MD5=[02fee1ba9544e95e6d6bcdcfd1d45196]
link App to Navbar--><path d="M236.018,51.832 C260.535,61.048 308.539,79.091 338.709,90.43 " fill="none" id="App-&gt;Navbar" style="stroke: #000000; stroke-width: 0.5;"/><polygon fill="#000000" points="343.758,92.328,336.7402,85.4179,339.0775,90.5693,333.9262,92.9066,343.758,92.328" style="stroke: #000000; stroke-width: 0.5;"/><!--MD5=[383d259121580c8bdcbae19127cbe979]
link _BookContext to bookReducer--><path d="M251.5,227.057 C251.5,233.4349 251.5,240.8029 251.5,247.3715 " fill="none" id="_BookContext-&gt;bookReducer" style="stroke: #000000; stroke-width: 0.5;"/><polygon fill="#000000" points="251.5,252.6619,255.5,243.6619,251.5,247.6619,247.5,243.6619,251.5,252.6619" style="stroke: #000000; stroke-width: 0.5;"/><!--MD5=[7048459ec7abd5d1f507fc1eaa50b13b]
link BookDetails to _BookContext--><path d="M309.019,166.452 C299.855,173.23 288.011,181.9915 277.455,189.8005 " fill="none" id="BookDetails-&gt;_BookContext" style="stroke: #000000; stroke-width: 0.5;"/><polygon fill="#000000" points="273.328,192.8531,282.9421,190.7155,277.3474,189.8791,278.1838,184.2845,273.328,192.8531" style="stroke: #000000; stroke-width: 0.5;"/><!--MD5=[61c2ea6521b524aaf9a6664ac9d14d33]
link BookForm to _BookContext--><path d="M200.285,166.452 C208.372,173.17 218.803,181.8366 228.14,189.593 " fill="none" id="BookForm-&gt;_BookContext" style="stroke: #000000; stroke-width: 0.5;"/><polygon fill="#000000" points="232.064,192.8531,227.6964,184.0257,228.2177,189.6584,222.5849,190.1798,232.064,192.8531" style="stroke: #000000; stroke-width: 0.5;"/><!--MD5=[647e67757beb83893945c949dbab3dad]
link BookList to _BookContext--><path d="M251.5,114.717 C251.5,132.522 251.5,165.856 251.5,187.7388 " fill="none" id="BookList-&gt;_BookContext" style="stroke: #000000; stroke-width: 0.5;"/><polygon fill="#000000" points="251.5,192.767,255.5,183.767,251.5,187.767,247.5,183.767,251.5,192.767" style="stroke: #000000; stroke-width: 0.5;"/><!--MD5=[4e582ab407d99ed94b308d76c7337830]
link BookList to BookDetails--><path d="M267.34,113.458 C278.021,120.847 292.222,130.671 303.797,138.678 " fill="none" id="BookList-&gt;BookDetails" style="stroke: #000000; stroke-width: 0.5;"/><polygon fill="#000000" points="307.931,141.538,302.8072,133.1269,303.8197,138.6924,298.2542,139.7049,307.931,141.538" style="stroke: #000000; stroke-width: 0.5;"/><!--MD5=[893f7b7637e22df589de0e5c7f34855e]
link <b>index</b> to App--><path d="M45.425,32.942 C52.9228,26.246 63.1979,18.565 74,15 C98.2681,6.991 165.272,5.509 189,15 C196.52,18.008 203.268,23.761 208.571,29.431 " fill="none" id="&lt;b&gt;index&lt;/b&gt;-&gt;App" style="stroke: #000000; stroke-width: 1.0;"/><polygon fill="#000000" points="212.003,33.309,209.033,23.9186,208.689,29.565,203.0426,29.2211,212.003,33.309" style="stroke: #000000; stroke-width: 1.0;"/><!--MD5=[2b3c0903df382c445dbd81c6573229ba]
link <b>index</b> to serviceWorker--><path d="M61.0625,45 C63.6219,45 66.1814,45 68.7408,45 " fill="none" id="&lt;b&gt;index&lt;/b&gt;-&gt;serviceWorker" style="stroke: #000000; stroke-width: 1.0;"/><polygon fill="#000000" points="73.9944,45,64.9944,41,68.9944,45,64.9944,49,73.9944,45" style="stroke: #000000; stroke-width: 1.0;"/><!--MD5=[7f59099866c8571729d07c18e253de5e]
link Navbar to _BookContext--><path d="M374.179,114.045 C383.4,127.838 395.166,151.046 383.5,167 C365.326,191.8542 332.314,202.3532 303.852,206.6392 " fill="none" id="Navbar-&gt;_BookContext" style="stroke: #000000; stroke-width: 0.5;"/><polygon fill="#000000" points="298.595,207.3693,308.0593,210.0945,303.5476,206.6821,306.9599,202.1704,298.595,207.3693" style="stroke: #000000; stroke-width: 0.5;"/><!--MD5=[752b159307fded7a1af15b83c04dd8e1]
link _0_Welcome_stories to _1_Button_stories--><!--MD5=[1a105eb7b97a0cf476678f4dd9204c60]
link _0_Welcome_stories to <b>setupTests</b>--><script type="text/plantuml"><![CDATA[MD5=[0ac4a8568dfec24f715e975b8e0e6a22]
@startuml

scale max 1920 width
top to bottom direction

skinparam nodesep 13
skinparam ranksep 26
skinparam monochrome true
skinparam shadowing false
skinparam defaultFontName Tahoma
skinparam defaultFontSize 12
skinparam roundCorner 6
skinparam dpi 150
skinparam arrowColor black
skinparam arrowThickness 0.5
skinparam packageTitleAlignment left

skinparam usecase {
  borderThickness 0.5
}

skinparam rectangle {
  borderThickness 0.5
}

skinparam component {
  borderThickness 1
}


rectangle "<b>0-Welcome.stories</b>" as _0_Welcome_stories
rectangle "<b>1-Button.stories</b>" as _1_Button_stories
(App)
rectangle "BookContext" as _BookContext
(BookDetails)
(BookForm)
(BookList)
(bookReducer)
(<b>index</b>)
(Navbar)
(serviceWorker)
(<b>setupTests</b>)


(App) --> _BookContext
(App) --> (BookForm)
(App) --> (BookList)
(App) --> (Navbar)
_BookContext --> (bookReducer)
(BookDetails) --> _BookContext
(BookForm) --> _BookContext
(BookList) --> _BookContext
(BookList) --> (BookDetails)
(<b>index</b>) -[thickness=1]> (App)
(<b>index</b>) -[thickness=1]> (serviceWorker)
(Navbar) --> _BookContext

@enduml


' View and edit on https://arkit.pro
]]></script></g></svg>